<svg width="92" height="128" viewBox="0 0 92 128" fill="none" xmlns="http://www.w3.org/2000/svg">
<path d="M52.2461 109.824V107.188H48.2422C48.3073 106.927 48.4375 106.536 48.6328 106.016L48.9258 104.844L45.9961 104.16C45.3451 106.895 44.401 109.401 43.1641 111.68C43.5547 112.917 43.8802 114.154 44.1406 115.391C44.4661 115 44.7591 114.544 45.0195 114.023H46.1914V116.367H43.457V119.004H46.1914V122.715C46.1914 123.561 45.9635 124.212 45.5078 124.668L47.2656 126.914C47.5911 126.589 48.0143 126.263 48.5352 125.938C49.2513 125.417 50.4883 124.668 52.2461 123.691C52.4414 123.561 52.6042 123.464 52.7344 123.398C52.5391 122.487 52.3763 121.543 52.2461 120.566C51.1393 121.152 50.1302 121.706 49.2188 122.227V119.004H52.1484V116.367H49.2188V114.023H51.7578V111.387H46.4844L46.7773 110.801C46.9727 110.41 47.1029 110.085 47.168 109.824H52.2461Z" fill="#586BF9"/>
<path d="M52.4414 114.512L52.9297 117.344L55.957 116.953C56.2174 118.711 56.5755 120.241 57.0312 121.543C55.2734 122.715 53.2878 123.691 51.0742 124.473C51.8555 125.449 52.474 126.328 52.9297 127.109C54.9479 126.133 56.7383 125.221 58.3008 124.375C58.431 124.44 58.5938 124.635 58.7891 124.961L59.375 125.547C60.2865 126.458 61.4583 126.914 62.8906 126.914C63.9974 126.914 64.7786 126.393 65.2344 125.352C65.625 124.375 66.0156 123.073 66.4062 121.445C65.5599 121.055 64.7135 120.632 63.8672 120.176C63.6719 121.283 63.444 122.324 63.1836 123.301C63.1185 123.626 62.9232 123.789 62.5977 123.789C62.3372 123.789 62.1094 123.724 61.9141 123.594L60.9375 122.617C60.8724 122.552 60.8398 122.487 60.8398 122.422C62.3372 121.055 63.8021 119.557 65.2344 117.93L62.793 116.172C61.7513 117.344 61.6536 117.441 62.5 116.465C61.263 117.832 60.319 118.841 59.668 119.492C59.4076 118.581 59.1797 117.604 58.9844 116.562L65.8203 115.684L65.4297 112.852L58.5938 113.73V112.754C58.5286 112.233 58.4961 111.842 58.4961 111.582L65.4297 110.801L65.1367 108.066L62.0117 108.359L63.6719 106.895C62.5 105.788 61.4583 104.876 60.5469 104.16L58.7891 105.82C59.5703 106.471 60.4818 107.35 61.5234 108.457L58.3008 108.75C58.2357 107.122 58.2031 105.625 58.2031 104.258H55.0781C55.0781 106.341 55.1432 107.969 55.2734 109.141L52.4414 109.434L52.9297 112.266L55.3711 111.973C55.3711 112.233 55.4036 112.591 55.4688 113.047C55.4688 113.503 55.5013 113.861 55.5664 114.121L52.4414 114.512Z" fill="#586BF9"/>
<path fill-rule="evenodd" clip-rule="evenodd" d="M85.6445 121.055C87.5977 120.924 88.6393 119.492 88.7695 116.758C88.8346 115.195 88.8997 112.852 88.9648 109.727C89.03 108.164 89.0625 106.992 89.0625 106.211H75.7812C76.1068 105.495 76.3997 104.811 76.6602 104.16H72.9492C71.9076 106.96 70.3451 109.629 68.2617 112.168C68.3268 112.428 68.457 112.819 68.6523 113.34C69.043 114.447 69.3685 115.326 69.6289 115.977C69.8242 115.781 70.0846 115.456 70.4102 115C70.7357 114.609 70.9635 114.316 71.0938 114.121V122.227C71.0938 125.026 72.6237 126.426 75.6836 126.426H85.3516C88.2812 126.426 89.974 125.645 90.4297 124.082C90.8203 122.845 91.1133 121.641 91.3086 120.469C90.5273 120.273 89.5508 119.915 88.3789 119.395C88.3138 120.371 88.151 121.315 87.8906 122.227C87.7604 123.203 86.9466 123.691 85.4492 123.691H76.5625C75.0651 123.691 74.3164 122.91 74.3164 121.348V119.59H81.0547C81.25 120.176 81.3477 120.697 81.3477 121.152C83.431 121.152 84.8633 121.12 85.6445 121.055ZM79.3945 116.953H74.3164V113.828H79.3945V116.953ZM82.7148 111.191H73.0469C73.112 111.061 73.2422 110.833 73.4375 110.508C73.8281 109.922 74.0885 109.466 74.2188 109.141H85.6445C85.5794 112.266 85.5469 114.74 85.5469 116.562C85.4818 117.604 85.0911 118.125 84.375 118.125C84.1797 118.125 83.9193 118.092 83.5938 118.027H82.7148V111.191Z" fill="#586BF9"/>
<path d="M30.957 114.609H40.625V122.324C38.8021 124.733 35.8073 125.938 31.6406 125.938C24.9349 125.677 21.4518 122.227 21.1914 115.586C21.4518 108.815 24.8047 105.299 31.25 105.039C35.8073 105.104 38.8672 107.09 40.4297 110.996L36.9141 111.973C36.0026 109.434 34.082 108.132 31.1523 108.066C27.1159 108.392 24.9674 110.898 24.707 115.586C24.9674 120.273 27.2461 122.78 31.543 123.105C34.2122 123.105 36.1328 122.422 37.3047 121.055V117.539H30.957V114.609Z" fill="#586BF9"/>
<path d="M14.7461 111.973L18.2617 110.996C16.6341 107.09 13.8021 105.104 9.76562 105.039C3.38542 105.234 0.130208 108.75 0 115.586C0.130208 122.357 3.28776 125.807 9.47266 125.938C14.4206 126.003 17.4805 123.757 18.6523 119.199L15.0391 118.32C14.3229 121.576 12.4349 123.171 9.375 123.105C5.53385 122.975 3.58073 120.469 3.51562 115.586C3.71094 110.768 5.72917 108.262 9.57031 108.066C12.1094 108.197 13.8346 109.499 14.7461 111.973Z" fill="#586BF9"/>
<path d="M13.75 56.8931C18.2835 71.0173 31.6323 81.25 47.3941 81.25C62.1077 81.25 74.7185 72.333 80.0186 59.6574C83.4578 51.431 80.0186 39.6081 65.5614 43.1426L13.75 56.8931Z" fill="#586BF9" fill-opacity="0.8"/>
<path d="M86.7827 58.75C80.4012 74.1596 65.2166 85 47.5 85C24.0279 85 5 65.9721 5 42.5C5 19.0279 24.0279 0 47.5 0C57.1239 0 66.0006 3.19878 73.125 8.59114C75.1363 10.1135 79.375 15 83.125 13.75C83.125 13.75 79.375 21.25 70.625 21.25C63.9163 21.25 56.593 17.5034 47.5156 17.5C47.5095 17.5 47.5 17.5 47.5 17.5C33.6929 17.5 22.5 28.6929 22.5 42.5C22.5 56.3071 33.6929 67.5 47.5 67.5C55.1033 67.5 61.9138 64.1058 66.499 58.75C75.625 49.375 86.7827 58.75 86.7827 58.75Z" fill="url(#paint0_linear_15_6)"/>
<defs>
<linearGradient id="paint0_linear_15_6" x1="28.4901" y1="-4.27784e-07" x2="62.8431" y2="83.903" gradientUnits="userSpaceOnUse">
<stop stop-color="#FED349"/>
<stop offset="1" stop-color="#ED9220"/>
</linearGradient>
</defs>
</svg>
